<svg width="40" height="40" viewBox="0 0 40 40" fill="none" xmlns="http://www.w3.org/2000/svg">
<path d="M20.0144 8C18.7628 8 17.6909 7.608 16.7988 6.824C15.9067 6.04 15.4614 5.09867 15.4629 4C15.4629 2.9 15.909 1.958 16.8011 1.174C17.6932 0.390003 18.7643 -0.00132994 20.0144 3.39559e-06C21.2661 3.39559e-06 22.338 0.392003 23.2301 1.176C24.1222 1.96 24.5675 2.90134 24.566 4C24.566 5.1 24.1199 6.042 23.2278 6.826C22.3357 7.61 21.2646 8.00134 20.0144 8ZM38.2205 12.5C36.3999 12.8667 34.5224 13.1753 32.588 13.426C30.6536 13.6767 28.7382 13.868 26.8417 14V38.05C26.8417 38.6167 26.6232 39.0833 26.1863 39.45C25.7493 39.8167 25.2092 40 24.566 40C23.9212 40 23.3803 39.808 22.9433 39.424C22.5064 39.04 22.2887 38.5653 22.2902 38V28H17.7387V38.05C17.7387 38.6167 17.5202 39.0833 17.0833 39.45C16.6463 39.8167 16.1062 40 15.4629 40C14.8181 40 14.2773 39.808 13.8403 39.424C13.4034 39.04 13.1857 38.5653 13.1872 38V14C11.2907 13.8667 9.37529 13.6747 7.4409 13.424C5.50651 13.1733 3.62901 12.8653 1.80841 12.5C1.16361 12.3667 0.670534 12.058 0.329171 11.574C-0.0121917 11.09 -0.0880499 10.5653 0.101596 10C0.253313 9.43334 0.604538 9.008 1.15527 8.724C1.706 8.44 2.30301 8.36534 2.94629 8.5C5.67719 9.03334 8.49382 9.41667 11.3962 9.65C14.2985 9.88334 17.1713 10 20.0144 10C22.8591 10 25.7327 9.88334 28.635 9.65C31.5373 9.41667 34.3532 9.03334 37.0826 8.5C37.7274 8.36667 38.3153 8.442 38.8463 8.726C39.3773 9.01 39.7376 9.43467 39.9273 10C40.079 10.5667 39.9933 11.092 39.6701 11.576C39.347 12.06 38.8638 12.368 38.2205 12.5Z" fill="#FFC107"/>
</svg>
