<svg width="50" height="50" viewBox="0 0 50 50" fill="none" xmlns="http://www.w3.org/2000/svg">
<path d="M16.75 12.375V16.75H12.375V12.375H16.75ZM10.1875 10.1875V18.9375H18.9375V10.1875H10.1875ZM27.6875 15.6562V20.0312H23.3125V15.6562H27.6875ZM21.125 13.4688V22.2188H29.875V13.4688H21.125ZM16.75 25.5V29.875H12.375V25.5H16.75ZM10.1875 23.3125V32.0625H18.9375V23.3125H10.1875Z" fill="#FFC107"/>
<path d="M32.0625 18.9375V25.5H25.5V32.0625H18.9375V40.8125H40.8125V18.9375H32.0625ZM27.6875 27.6875H32.0625V32.0625H27.6875V27.6875ZM25.5 38.625H21.125V34.25H25.5V38.625ZM32.0625 38.625H27.6875V34.25H32.0625V38.625ZM38.625 38.625H34.25V34.25H38.625V38.625ZM38.625 32.0625H34.25V27.6875H38.625V32.0625ZM34.25 25.5V21.125H38.625V25.5H34.25Z" fill="#FFC107"/>
<path d="M15 0H2.5C1.83696 0 1.20107 0.263392 0.732233 0.732233C0.263392 1.20107 0 1.83696 0 2.5V15C0 15.663 0.263392 16.2989 0.732233 16.7678C1.20107 17.2366 1.83696 17.5 2.5 17.5C3.16304 17.5 3.79893 17.2366 4.26777 16.7678C4.73661 16.2989 5 15.663 5 15V5H15C15.663 5 16.2989 4.73661 16.7678 4.26777C17.2366 3.79893 17.5 3.16304 17.5 2.5C17.5 1.83696 17.2366 1.20107 16.7678 0.732233C16.2989 0.263392 15.663 0 15 0ZM15 45H5V35C5 34.337 4.73661 33.7011 4.26777 33.2322C3.79893 32.7634 3.16304 32.5 2.5 32.5C1.83696 32.5 1.20107 32.7634 0.732233 33.2322C0.263392 33.7011 0 34.337 0 35V47.5C0 48.163 0.263392 48.7989 0.732233 49.2678C1.20107 49.7366 1.83696 50 2.5 50H15C15.663 50 16.2989 49.7366 16.7678 49.2678C17.2366 48.7989 17.5 48.163 17.5 47.5C17.5 46.837 17.2366 46.2011 16.7678 45.7322C16.2989 45.2634 15.663 45 15 45ZM47.5 0H35C34.337 0 33.7011 0.263392 33.2322 0.732233C32.7634 1.20107 32.5 1.83696 32.5 2.5C32.5 3.16304 32.7634 3.79893 33.2322 4.26777C33.7011 4.73661 34.337 5 35 5H45V15C45 15.663 45.2634 16.2989 45.7322 16.7678C46.2011 17.2366 46.837 17.5 47.5 17.5C48.163 17.5 48.7989 17.2366 49.2678 16.7678C49.7366 16.2989 50 15.663 50 15V2.5C50 1.83696 49.7366 1.20107 49.2678 0.732233C48.7989 0.263392 48.163 0 47.5 0ZM47.5 32.5C46.837 32.5 46.2011 32.7634 45.7322 33.2322C45.2634 33.7011 45 34.337 45 35V45H35C34.337 45 33.7011 45.2634 33.2322 45.7322C32.7634 46.2011 32.5 46.837 32.5 47.5C32.5 48.163 32.7634 48.7989 33.2322 49.2678C33.7011 49.7366 34.337 50 35 50H47.5C48.163 50 48.7989 49.7366 49.2678 49.2678C49.7366 48.7989 50 48.163 50 47.5V35C50 34.337 49.7366 33.7011 49.2678 33.2322C48.7989 32.7634 48.163 32.5 47.5 32.5Z" fill="#FFC107"/>
</svg>
