<svg width="32" height="44" viewBox="0 0 32 44" fill="none" xmlns="http://www.w3.org/2000/svg">
<path d="M13.6667 4.22222H18.3333M16 33.1111V33.1333M2 6.44444C2 5.2657 2.49167 4.13524 3.36683 3.30175C4.242 2.46825 5.42899 2 6.66667 2H25.3333C26.571 2 27.758 2.46825 28.6332 3.30175C29.5083 4.13524 30 5.2657 30 6.44444V37.5556C30 38.7343 29.5083 39.8648 28.6332 40.6983C27.758 41.5317 26.571 42 25.3333 42H6.66667C5.42899 42 4.242 41.5317 3.36683 40.6983C2.49167 39.8648 2 38.7343 2 37.5556V6.44444Z" stroke="#FFC107" stroke-width="3" stroke-linecap="round" stroke-linejoin="round"/>
</svg>
