<svg width="39" height="40" viewBox="0 0 39 40" fill="none" xmlns="http://www.w3.org/2000/svg">
<path d="M20.5377 10C21.119 10 21.6065 10.192 22.0004 10.576C22.3942 10.96 22.5905 11.4347 22.5891 12V22C22.5891 22.5667 22.3922 23.042 21.9983 23.426C21.6045 23.81 21.1176 24.0013 20.5377 24C19.9565 24 19.469 23.808 19.0751 23.424C18.6813 23.04 18.485 22.5653 18.4864 22V12C18.4864 11.4333 18.6833 10.958 19.0772 10.574C19.471 10.19 19.9579 9.99867 20.5377 10ZM14.3837 12C14.9649 12 15.4524 12.192 15.8463 12.576C16.2401 12.96 16.4364 13.4347 16.435 14V19C16.435 19.5667 16.2381 20.042 15.8442 20.426C15.4504 20.81 14.9635 21.0013 14.3837 21C13.8024 21 13.3149 20.808 12.921 20.424C12.5272 20.04 12.3309 19.5653 12.3323 19V14C12.3323 13.4333 12.5292 12.958 12.9231 12.574C13.317 12.19 13.8038 11.9987 14.3837 12ZM26.6918 12C27.2731 12 27.7606 12.192 28.1545 12.576C28.5483 12.96 28.7446 13.4347 28.7432 14V18C28.7432 18.5667 28.5463 19.042 28.1524 19.426C27.7585 19.81 27.2717 20.0013 26.6918 20C26.1106 20 25.6231 19.808 25.2292 19.424C24.8353 19.04 24.6391 18.5653 24.6405 18V14C24.6405 13.4333 24.8374 12.958 25.2313 12.574C25.6251 12.19 26.112 11.9987 26.6918 12ZM32.8459 40V31.4C34.7947 29.6667 36.3072 27.6413 37.3835 25.324C38.4598 23.0067 38.9986 20.5653 39 18C39 13 37.2051 8.75 33.6152 5.25C30.0253 1.75 25.6662 0 20.5377 0C16.2641 0 12.4773 1.22533 9.17731 3.676C5.87735 6.12667 3.73232 9.318 2.74219 13.25L0.0754166 23.5C-0.0955276 24.1333 0.0241356 24.7087 0.43441 25.226C0.844681 25.7433 1.39171 26.0013 2.0755 26H6.17822V32C6.17822 33.1 6.58028 34.042 7.38442 34.826C8.18855 35.61 9.15406 36.0013 10.2809 36H14.3837V40H18.4864L18.4864 32H10.2809V22L4.74226 22L6.69106 14.25C7.47742 11.2167 9.15269 8.75 11.7169 6.85C14.2811 4.95 17.2214 4 20.5377 4C24.5037 4 27.8885 5.35 30.692 8.05C33.4955 10.75 34.8973 14.0333 34.8973 17.9C34.8973 19.9 34.4781 21.8 33.6398 23.6C32.8015 25.4 31.6137 27 30.0766 28.4L28.7432 29.6V40H32.8459Z" fill="#FFC107"/>
</svg>
