<svg width="40" height="32" viewBox="0 0 40 32" fill="none" xmlns="http://www.w3.org/2000/svg">
<path d="M25.4545 20C20.5455 20 10.9091 22.6 10.9091 28V32H40V28C40 22.6 30.3636 20 25.4545 20ZM25.4545 16C27.3834 16 29.2332 15.1571 30.5971 13.6569C31.961 12.1566 32.7273 10.1217 32.7273 8C32.7273 5.87827 31.961 3.84344 30.5971 2.34315C29.2332 0.842854 27.3834 0 25.4545 0C23.5257 0 21.6759 0.842854 20.312 2.34315C18.948 3.84344 18.1818 5.87827 18.1818 8C18.1818 10.1217 18.948 12.1566 20.312 13.6569C21.6759 15.1571 23.5257 16 25.4545 16ZM7.27273 22L6.18182 21C2.54545 17.2 0 14.8 0 11.8C0 9.4 1.81818 7.4 4 7.4C5.27273 7.4 6.54545 8 7.27273 9C8 8 9.27273 7.4 10.5455 7.4C12.7273 7.4 14.5455 9.2 14.5455 11.8C14.5455 14.8 12 17.2 8.36364 21L7.27273 22Z" fill="#FFC107"/>
</svg>
