<svg width="24" height="18" viewBox="0 0 24 18" fill="none" xmlns="http://www.w3.org/2000/svg">
<path d="M5.423 0.0380859C4.139 0.0380859 3.19 1.16209 3.233 2.38009C3.273 3.55109 3.22 5.06709 2.838 6.30409C2.455 7.54409 1.808 8.33009 0.75 8.43109V9.56909C1.808 9.67009 2.455 10.4561 2.838 11.6961C3.22 12.9321 3.273 14.4491 3.232 15.6191C3.19 16.8381 4.139 17.9621 5.424 17.9621H18.578C19.862 17.9621 20.812 16.8381 20.77 15.6191C20.729 14.4491 20.782 12.9321 21.163 11.6961C21.547 10.4561 22.193 9.67009 23.25 9.56909V8.43109C22.192 8.33009 21.547 7.54409 21.163 6.30409C20.782 5.06809 20.729 3.55109 20.77 2.38009C20.812 1.16209 19.862 0.0380859 18.578 0.0380859H5.423ZM16.004 11.0711C16.004 12.7491 14.753 13.7671 12.676 13.7671H9.14C9.08988 13.7672 9.04023 13.7575 8.99389 13.7384C8.94755 13.7193 8.90543 13.6912 8.86995 13.6558C8.83446 13.6205 8.80631 13.5784 8.7871 13.5321C8.76789 13.4858 8.758 13.4362 8.758 13.3861V4.61409C8.758 4.56397 8.76789 4.51434 8.7871 4.46805C8.80631 4.42176 8.83446 4.37972 8.86995 4.34432C8.90543 4.30893 8.94755 4.28089 8.99389 4.2618C9.04023 4.24271 9.08988 4.23295 9.14 4.23309H12.655C14.387 4.23309 15.524 5.17109 15.524 6.61209C15.524 7.62209 14.759 8.52809 13.785 8.68609V8.73909C15.111 8.88409 16.004 9.80309 16.004 11.0711ZM12.29 5.44109H10.274V8.28909H11.972C13.285 8.28909 14.008 7.76109 14.008 6.81609C14.008 5.93109 13.386 5.44209 12.29 5.44209V5.44109ZM10.274 9.41909V12.5581H12.364C13.731 12.5581 14.454 12.0091 14.454 10.9781C14.454 9.94809 13.711 9.41909 12.276 9.41909H10.274Z" fill="#FFC107"/>
</svg>
