<svg width="24" height="24" viewBox="0 0 24 24" fill="none" xmlns="http://www.w3.org/2000/svg">
<path fill-rule="evenodd" clip-rule="evenodd" d="M8.66697 9.417C8.32777 9.417 7.99188 9.48381 7.6785 9.61362C7.36512 9.74343 7.08037 9.93369 6.84051 10.1735C6.60066 10.4134 6.4104 10.6981 6.28059 11.0115C6.15078 11.3249 6.08397 11.6608 6.08397 12C6.08397 12.3392 6.15078 12.6751 6.28059 12.9885C6.4104 13.3019 6.60066 13.5866 6.84051 13.8265C7.08037 14.0663 7.36512 14.2566 7.6785 14.3864C7.99188 14.5162 8.32777 14.583 8.66697 14.583H11.25V12.052C11.2496 12.0173 11.2496 11.9827 11.25 11.948V9.417H8.66697ZM11.25 7.917H8.66697C7.98178 7.917 7.32466 7.64481 6.84016 7.16031C6.35566 6.67581 6.08347 6.01869 6.08347 5.3335C6.08347 4.64831 6.35566 3.99119 6.84016 3.50669C7.32466 3.02219 7.98178 2.75 8.66697 2.75H11.25V7.917ZM12.75 2.75V7.917H15.333C16.0094 7.90369 16.6535 7.62565 17.1272 7.1426C17.6008 6.65955 17.8661 6.01002 17.8661 5.3335C17.8661 4.65698 17.6008 4.00745 17.1272 3.5244C16.6535 3.04135 16.0094 2.76331 15.333 2.75H12.75ZM15.333 9.416C14.655 9.41591 14.0041 9.68242 13.5209 10.158C13.0376 10.6336 12.7607 11.2801 12.75 11.958V12.041C12.7582 12.55 12.9167 13.0452 13.2056 13.4644C13.4944 13.8836 13.9006 14.2081 14.3733 14.3972C14.8459 14.5863 15.3639 14.6315 15.8621 14.5271C16.3604 14.4228 16.8167 14.1735 17.1738 13.8107C17.5308 13.4478 17.7727 12.9875 17.869 12.4877C17.9653 11.9878 17.9117 11.4706 17.7151 11.0011C17.5184 10.5315 17.1874 10.1306 16.7635 9.84857C16.3397 9.56656 15.842 9.41607 15.333 9.416ZM8.66697 16.083C8.15586 16.0828 7.65617 16.2342 7.23111 16.518C6.80604 16.8018 6.47468 17.2053 6.27895 17.6775C6.08322 18.1496 6.03191 18.6692 6.1315 19.1705C6.23109 19.6718 6.47711 20.1323 6.83845 20.4938C7.19979 20.8553 7.66022 21.1015 8.16149 21.2013C8.66276 21.3011 9.18237 21.2499 9.65459 21.0544C10.1268 20.8589 10.5304 20.5277 10.8144 20.1027C11.0984 19.6777 11.25 19.1781 11.25 18.667V16.083H8.66697Z" fill="#FFC107"/>
</svg>
