<svg width="20" height="20" viewBox="0 0 18 18" fill="none" xmlns="http://www.w3.org/2000/svg">
<path d="M3 0C2.20435 0 1.44129 0.316071 0.87868 0.87868C0.316071 1.44129 0 2.20435 0 3V15C0 15.7956 0.316071 16.5587 0.87868 17.1213C1.44129 17.6839 2.20435 18 3 18H15C15.7956 18 16.5587 17.6839 17.1213 17.1213C17.6839 16.5587 18 15.7956 18 15V3C18 2.20435 17.6839 1.44129 17.1213 0.87868C16.5587 0.316071 15.7956 0 15 0H3ZM10.334 13.055C11.054 13.635 11.772 13.92 12.49 13.913C12.93 13.913 13.268 13.833 13.502 13.671C13.6113 13.6001 13.7002 13.5019 13.76 13.3862C13.8197 13.2705 13.8484 13.1412 13.843 13.011C13.8445 12.869 13.8148 12.7285 13.756 12.5993C13.6973 12.47 13.6109 12.3552 13.503 12.263C13.268 12.058 12.824 11.853 12.171 11.647C11.387 11.42 10.781 11.127 10.356 10.767C9.938 10.407 9.726 9.905 9.718 9.26C9.718 8.651 9.982 8.142 10.51 7.731C11.024 7.321 11.68 7.115 12.48 7.115C13.594 7.115 14.489 7.386 15.163 7.929L14.393 9.128C14.1158 8.91236 13.7977 8.75519 13.458 8.666C13.1527 8.56389 12.8338 8.50827 12.512 8.501C12.132 8.501 11.827 8.571 11.599 8.71C11.372 8.85 11.259 9.033 11.259 9.26C11.259 9.51 11.398 9.722 11.676 9.898C11.956 10.067 12.432 10.254 13.106 10.459C13.92 10.701 14.5 11.024 14.844 11.427C15.189 11.83 15.361 12.344 15.361 12.967C15.361 13.605 15.116 14.155 14.624 14.617C14.14 15.072 13.436 15.31 12.512 15.332C11.302 15.332 10.29 14.969 9.476 14.243L10.334 13.055ZM4.804 13.693C5.039 13.84 5.321 13.913 5.651 13.913C5.996 13.913 6.281 13.814 6.509 13.616C6.736 13.411 6.85 13.055 6.85 12.549V7.247H8.335V12.835C8.313 13.7 8.064 14.324 7.587 14.705C7.32673 14.9263 7.02332 15.0911 6.696 15.189C6.39283 15.2814 6.07792 15.3295 5.761 15.332C5.211 15.332 4.723 15.237 4.298 15.046C3.843 14.841 3.462 14.478 3.154 13.957L4.188 13.11C4.378 13.367 4.584 13.561 4.804 13.693Z" fill="#FFC107"/>
</svg>
