<svg width="15" height="15" viewBox="0 0 15 15" fill="none" xmlns="http://www.w3.org/2000/svg">
<path fill-rule="evenodd" clip-rule="evenodd" d="M2.15867e-07 7.49997C4.83117e-05 6.2058 0.334979 4.93366 0.972226 3.80726C1.60947 2.68085 2.52735 1.73851 3.6366 1.07186C4.74586 0.405205 6.00875 0.036932 7.30247 0.00284641C8.59619 -0.0312392 9.87671 0.270023 11.0195 0.877339C12.1624 1.48465 13.1286 2.37736 13.8243 3.46864C14.5199 4.55993 14.9214 5.81267 14.9896 7.10504C15.0578 8.39741 14.7904 9.68543 14.2134 10.8439C13.6365 12.0023 12.7696 12.9917 11.697 13.716L4.907 4.20997C4.84548 4.12375 4.75816 4.0593 4.65765 4.0259C4.55714 3.99251 4.44861 3.99189 4.34773 4.02415C4.24684 4.05641 4.1588 4.11987 4.09631 4.20538C4.03382 4.2909 4.00009 4.39405 4 4.49997V12H5V6.05997L10.83 14.222C9.6864 14.7886 8.41711 15.0541 7.14227 14.9932C5.86742 14.9324 4.6292 14.5472 3.54481 13.8741C2.46041 13.201 1.56572 12.2624 0.945406 11.1469C0.325096 10.0315 -0.000305962 8.77626 2.15867e-07 7.49997ZM10 9.99997V3.99997H11V9.99997H10Z" fill="#FFC107"/>
</svg>
