<svg width="30" height="25" viewBox="0 0 30 30" fill="none" xmlns="http://www.w3.org/2000/svg">
<path d="M13.101 12.6376C14.2065 12.6376 15.1081 13.6876 15.1081 15.0001C15.1081 16.2501 14.2065 17.3126 13.101 17.3126C11.9954 17.3126 11.0938 16.2501 11.0938 15.0001C11.0938 13.6876 11.9954 12.6376 13.101 12.6376ZM8.13137 25.0001C8.80758 25.4751 10.2888 24.7501 11.9954 22.8751C11.4373 22.1376 10.8899 21.3376 10.3747 20.5001C9.50971 20.4037 8.64981 20.2534 7.79864 20.0501C7.25123 22.7251 7.45517 24.5626 8.13137 25.0001ZM8.89345 17.8251L8.58218 17.1876C8.46411 17.5501 8.34604 17.9126 8.27091 18.2626C8.56071 18.3376 8.88272 18.4001 9.21545 18.4626L8.89345 17.8251ZM15.9131 16.8751L16.7825 15.0001L15.9131 13.1251C15.5911 12.4626 15.2477 11.8751 14.9364 11.2876C14.3568 11.2501 13.745 11.2501 13.101 11.2501C12.457 11.2501 11.8451 11.2501 11.2655 11.2876C10.9543 11.8751 10.6108 12.4626 10.2888 13.1251L9.41939 15.0001L10.2888 16.8751C10.6108 17.5376 10.9543 18.1251 11.2655 18.7126C11.8451 18.7501 12.457 18.7501 13.101 18.7501C13.745 18.7501 14.3568 18.7501 14.9364 18.7126C15.2477 18.1251 15.5911 17.5376 15.9131 16.8751ZM13.101 8.47505C12.897 8.75005 12.6824 9.03755 12.4677 9.37505H13.7342C13.5196 9.03755 13.3049 8.75005 13.101 8.47505ZM13.101 21.5251C13.3049 21.2501 13.5196 20.9626 13.7342 20.6251H12.4677C12.6824 20.9626 12.897 21.2501 13.101 21.5251ZM18.0598 5.00005C17.3943 4.52505 15.9131 5.25005 14.2065 7.12505C14.7646 7.86255 15.3121 8.66255 15.8273 9.50005C16.7074 9.60005 17.5768 9.75005 18.4033 9.95005C18.9507 7.27505 18.7468 5.43755 18.0598 5.00005ZM17.3085 12.1751L17.6197 12.8126C17.7378 12.4501 17.8559 12.0876 17.931 11.7376C17.6412 11.6626 17.3192 11.6001 16.9865 11.5376L17.3085 12.1751ZM18.8648 3.36255C20.4426 4.41255 20.6144 7.17505 19.9489 10.4001C22.6752 11.3376 24.6394 12.8876 24.6394 15.0001C24.6394 17.1126 22.6752 18.6626 19.9489 19.6001C20.6144 22.8251 20.4426 25.5876 18.8648 26.6376C17.2977 27.6876 15.1618 26.4876 13.101 24.2001C11.0401 26.4876 8.90418 27.6876 7.32636 26.6376C5.75928 25.5876 5.58754 22.8251 6.25302 19.6001C3.52672 18.6626 1.5625 17.1126 1.5625 15.0001C1.5625 12.8876 3.52672 11.3376 6.25302 10.4001C5.58754 7.17505 5.75928 4.41255 7.32636 3.36255C8.90418 2.31255 11.0401 3.51255 13.101 5.80005C15.1618 3.51255 17.2977 2.31255 18.8648 3.36255ZM18.5536 15.0001C18.9185 15.9376 19.2405 16.8751 19.5088 17.8251C21.7629 17.0376 23.0294 15.9126 23.0294 15.0001C23.0294 14.0876 21.7629 12.9626 19.5088 12.1751C19.2405 13.1251 18.9185 14.0626 18.5536 15.0001ZM7.64837 15.0001C7.28343 14.0626 6.96143 13.1251 6.69309 12.1751C4.43907 12.9626 3.17252 14.0876 3.17252 15.0001C3.17252 15.9126 4.43907 17.0376 6.69309 17.8251C6.96143 16.8751 7.28343 15.9376 7.64837 15.0001ZM17.3085 17.8251L16.9865 18.4626C17.3192 18.4001 17.6412 18.3376 17.931 18.2626C17.8559 17.9126 17.7378 17.5501 17.6197 17.1876L17.3085 17.8251ZM14.2065 22.8751C15.9131 24.7501 17.3943 25.4751 18.0598 25.0001C18.7468 24.5626 18.9507 22.7251 18.4033 20.0501C17.5768 20.2501 16.7074 20.4001 15.8273 20.5001C15.3121 21.3376 14.7646 22.1376 14.2065 22.8751ZM8.89345 12.1751L9.21545 11.5376C8.88272 11.6001 8.56071 11.6626 8.27091 11.7376C8.34604 12.0876 8.46411 12.4501 8.58218 12.8126L8.89345 12.1751ZM11.9954 7.12505C10.2888 5.25005 8.80758 4.52505 8.13137 5.00005C7.45517 5.43755 7.25123 7.27505 7.79864 9.95005C8.64981 9.74667 9.50971 9.59645 10.3747 9.50005C10.8899 8.66255 11.4373 7.86255 11.9954 7.12505Z" fill="#FFC107"/>
</svg>
